<svg xmlns="http://www.w3.org/2000/svg" xmlns:xlink="http://www.w3.org/1999/xlink" width="40" zoomAndPan="magnify" viewBox="0 0 30 30.000001" height="40" preserveAspectRatio="xMidYMid meet" version="1.0"><defs><clipPath id="id1"><path d="M 0.484375 0 L 29.515625 0 L 29.515625 29.03125 L 0.484375 29.03125 Z M 0.484375 0 " clip-rule="nonzero"/></clipPath></defs><g clip-path="url(#id1)"><path fill="#55d449" d="M 15 0 C 6.992188 0 0.484375 6.507812 0.484375 14.515625 C 0.484375 22.523438 6.992188 29.03125 15 29.03125 C 23.007812 29.03125 29.515625 22.523438 29.515625 14.515625 C 29.515625 6.507812 23.007812 0 15 0 Z M 21.738281 12.972656 L 15.25 19.4375 C 15.179688 19.507812 15.113281 19.527344 15.023438 19.527344 L 15.023438 19.753906 L 15.023438 19.507812 C 14.933594 19.507812 14.863281 19.484375 14.796875 19.4375 L 8.308594 12.949219 C 8.195312 12.835938 8.195312 12.632812 8.308594 12.519531 L 8.832031 12 C 8.945312 11.886719 9.148438 11.886719 9.285156 12 L 14.863281 17.578125 C 14.953125 17.667969 15.089844 17.667969 15.179688 17.578125 L 20.761719 12 C 20.875 11.886719 21.078125 11.886719 21.214844 12 L 21.738281 12.519531 C 21.851562 12.632812 21.851562 12.835938 21.738281 12.972656 Z M 21.738281 12.972656 " fill-opacity="1" fill-rule="nonzero"/></g></svg>