<svg xmlns="http://www.w3.org/2000/svg" xmlns:xlink="http://www.w3.org/1999/xlink" width="500" zoomAndPan="magnify" viewBox="0 0 375 374.999991" height="500" preserveAspectRatio="xMidYMid meet" version="1.0"><path fill="#55d449" d="M 187.5 0 C 84.082031 0 0 84.082031 0 187.5 C 0 290.917969 84.082031 375 187.5 375 C 290.917969 375 375 290.917969 375 187.5 C 375 84.082031 290.917969 0 187.5 0 Z M 274.511719 167.578125 L 190.722656 251.074219 C 189.84375 251.953125 188.964844 252.246094 187.792969 252.246094 L 187.792969 255.175781 L 187.792969 251.953125 C 186.621094 251.953125 185.742188 251.660156 184.863281 251.074219 L 101.074219 167.285156 C 99.609375 165.820312 99.609375 163.183594 101.074219 161.71875 L 107.8125 154.980469 C 109.277344 153.515625 111.914062 153.515625 113.671875 154.980469 L 185.742188 227.050781 C 186.914062 228.222656 188.671875 228.222656 189.84375 227.050781 L 261.914062 154.980469 C 263.378906 153.515625 266.015625 153.515625 267.773438 154.980469 L 274.511719 161.71875 C 275.976562 163.183594 275.976562 165.820312 274.511719 167.578125 Z M 274.511719 167.578125 " fill-opacity="1" fill-rule="nonzero"/></svg>